<svg id="Layer_1" data-name="Layer 1" xmlns="http://www.w3.org/2000/svg" viewBox="0 0 54.79 53.88">
  <defs>
    <style>
      .cls-1 {
        fill: #4c4a9f;
      }
    </style>
  </defs>
  <title>Kaanoli_logo_alone2</title>
  <path class="cls-1" d="M96.24,45.72H46.66a2.61,2.61,0,0,0-2.61,2.61V97a2.6,2.6,0,0,0,2.61,2.6H96.24a2.59,2.59,0,0,0,2.6-2.6V48.33A2.6,2.6,0,0,0,96.24,45.72ZM73.5,51.93a1.71,1.71,0,0,1,1.72-1.7h4.61a1.71,1.71,0,0,1,1.72,1.7V69.14a1.71,1.71,0,0,1-1.72,1.7H75.22a1.71,1.71,0,0,1-1.72-1.7ZM68.59,86.32,59.32,91l-8.38,4a1.67,1.67,0,0,1-2.42-1.45l.06-8.6.06-8.63a1.67,1.67,0,0,1,2.41-1.43l8.27,3.92,9.28,4.72A1.58,1.58,0,0,1,68.59,86.32Zm.9-17.79a2.31,2.31,0,0,1-2.32,2.31H50.84a2.31,2.31,0,0,1-2.32-2.31v-16a2.32,2.32,0,0,1,2.32-2.32H67.17a2.32,2.32,0,0,1,2.32,2.32ZM84,95.2A10.31,10.31,0,1,1,94.46,84.9,10.39,10.39,0,0,1,84,95.2ZM94.46,69.14a1.72,1.72,0,0,1-1.73,1.7h-4.6a1.71,1.71,0,0,1-1.73-1.7V51.93a1.71,1.71,0,0,1,1.73-1.7h4.6a1.72,1.72,0,0,1,1.73,1.7Z" transform="translate(-44.05 -45.72)"/>
</svg>
