<svg id="Layer_1" data-name="Layer 1" xmlns="http://www.w3.org/2000/svg" viewBox="0 0 259.09 53.88">
  <defs>
    <style>
      .cls-1 {
        fill: #4a47a3;
      }
    </style>
  </defs>
  <title>Kaanoli_logo2</title>
  <path class="cls-1" d="M142.65,70.13l-7.53,8.36a1.36,1.36,0,0,0-.12,1.67l11.44,17.26a1.36,1.36,0,0,1-1.14,2.12h-4.56a1.36,1.36,0,0,1-1.14-.62L131,85.68a1.36,1.36,0,0,0-2.16-.17l-1.44,1.61A1.36,1.36,0,0,0,127,88V98.17a1.36,1.36,0,0,1-1.36,1.36h-3.9a1.36,1.36,0,0,1-1.36-1.36v-29a1.36,1.36,0,0,1,1.36-1.36h3.9A1.36,1.36,0,0,1,127,69.21V75a1.36,1.36,0,0,0,2.4.89l6.56-7.6a1.36,1.36,0,0,1,1-.47h4.64A1.36,1.36,0,0,1,142.65,70.13Z" transform="translate(-54.11 -56.75)"/>
  <path class="cls-1" d="M169.63,94.25H157.54a1.36,1.36,0,0,0-1.28.89L155,98.64a1.36,1.36,0,0,1-1.28.89h-3.91a1.36,1.36,0,0,1-1.27-1.87L160,68.73a1.36,1.36,0,0,1,1.27-.86H166a1.36,1.36,0,0,1,1.27.86l11.47,28.93a1.36,1.36,0,0,1-1.27,1.87H173.5a1.36,1.36,0,0,1-1.28-.88l-1.32-3.51A1.36,1.36,0,0,0,169.63,94.25Zm-8.8-6h5.51a1.36,1.36,0,0,0,1.28-1.84L164.88,79a1.36,1.36,0,0,0-2.56,0l-2.77,7.4A1.36,1.36,0,0,0,160.83,88.26Z" transform="translate(-54.11 -56.75)"/>
  <path class="cls-1" d="M201.29,94.25H189.2a1.36,1.36,0,0,0-1.28.89l-1.29,3.49a1.36,1.36,0,0,1-1.28.89h-3.91a1.36,1.36,0,0,1-1.27-1.87l11.49-28.93a1.36,1.36,0,0,1,1.27-.86h4.69a1.36,1.36,0,0,1,1.27.86l11.47,28.93a1.36,1.36,0,0,1-1.27,1.87h-3.92a1.36,1.36,0,0,1-1.28-.88l-1.32-3.51A1.36,1.36,0,0,0,201.29,94.25Zm-8.8-6H198a1.36,1.36,0,0,0,1.28-1.84L196.54,79A1.36,1.36,0,0,0,194,79l-2.77,7.4A1.36,1.36,0,0,0,192.49,88.26Z" transform="translate(-54.11 -56.75)"/>
  <path class="cls-1" d="M213.07,98.17v-29a1.36,1.36,0,0,1,1.36-1.36h1.65a1.36,1.36,0,0,1,1,.43l16,17.11a1.36,1.36,0,0,0,2.36-.93V69.21a1.36,1.36,0,0,1,1.36-1.36h3.88a1.36,1.36,0,0,1,1.36,1.36v29a1.36,1.36,0,0,1-1.36,1.36h-1.65a1.36,1.36,0,0,1-1-.43L222,82a1.36,1.36,0,0,0-2.36.93V98.17a1.36,1.36,0,0,1-1.36,1.36h-3.88A1.36,1.36,0,0,1,213.07,98.17Z" transform="translate(-54.11 -56.75)"/>
  <path class="cls-1" d="M261.63,99.53c-9.28,0-16.13-6.94-16.13-15.84s6.85-15.84,16.13-15.84,16.15,7,16.15,15.84S270.93,99.53,261.63,99.53Zm0-25.61c-5.68,0-9.35,4.31-9.35,9.77s3.67,9.74,9.35,9.74S271,89.17,271,83.69,267.33,73.92,261.63,73.92Z" transform="translate(-54.11 -56.75)"/>
  <path class="cls-1" d="M287.83,69.19V92a1.36,1.36,0,0,0,1.36,1.36h12.94a1.36,1.36,0,0,1,1.36,1.36v3.39a1.36,1.36,0,0,1-1.36,1.36H282.57a1.36,1.36,0,0,1-1.36-1.36v-29a1.36,1.36,0,0,1,1.36-1.36h3.9A1.36,1.36,0,0,1,287.83,69.19Z" transform="translate(-54.11 -56.75)"/>
  <path class="cls-1" d="M307.94,67.85h3.9a1.36,1.36,0,0,1,1.36,1.36v29a1.36,1.36,0,0,1-1.36,1.36h-3.9a1.36,1.36,0,0,1-1.36-1.36v-29A1.36,1.36,0,0,1,307.94,67.85Z" transform="translate(-54.11 -56.75)"/>
  <path class="cls-1" d="M106.3,56.75H56.72a2.61,2.61,0,0,0-2.61,2.61V108a2.6,2.6,0,0,0,2.61,2.6H106.3a2.59,2.59,0,0,0,2.6-2.6V59.36A2.6,2.6,0,0,0,106.3,56.75ZM83.56,63a1.71,1.71,0,0,1,1.72-1.7h4.61A1.71,1.71,0,0,1,91.61,63V80.17a1.71,1.71,0,0,1-1.72,1.7H85.28a1.71,1.71,0,0,1-1.72-1.7ZM78.65,97.35,69.38,102,61,106a1.67,1.67,0,0,1-2.42-1.45l.06-8.6.06-8.63a1.67,1.67,0,0,1,2.41-1.43l8.27,3.92,9.28,4.72A1.58,1.58,0,0,1,78.65,97.35Zm.9-17.79a2.31,2.31,0,0,1-2.32,2.31H60.9a2.31,2.31,0,0,1-2.32-2.31v-16a2.32,2.32,0,0,1,2.32-2.32H77.23a2.32,2.32,0,0,1,2.32,2.32ZM94,106.23a10.31,10.31,0,1,1,10.48-10.3A10.39,10.39,0,0,1,94,106.23Zm10.48-26.06a1.72,1.72,0,0,1-1.73,1.7h-4.6a1.71,1.71,0,0,1-1.73-1.7V63a1.71,1.71,0,0,1,1.73-1.7h4.6a1.72,1.72,0,0,1,1.73,1.7Z" transform="translate(-54.11 -56.75)"/>
</svg>
